<?xml version="1.0" encoding="UTF-8"?>
<svg width="100%" viewBox="0 0 900 500" xmlns="http://www.w3.org/2000/svg" id="svg-p3">
      <rect x="0" y="0" width="900" height="500" fill="#f8fafc"/>
      <rect x="20" y="20" width="860" height="460" fill="#eef2f7" stroke="#c8d0dc" stroke-width="1"/>

      <!-- Bloque norte -->
      <rect x="60" y="40" width="700" height="190" fill="#dbeafe" stroke="#1a1a1a" stroke-width="2"/>

      <rect x="60" y="40" width="155" height="190" fill="#dbeafe" stroke="#1a1a1a" stroke-width="1.2"/>
      <text class="room-label" x="137" y="140" text-anchor="middle" font-size="9" fill="#1e40af">Aula 301</text>

      <rect x="225" y="40" width="155" height="190" fill="#dbeafe" stroke="#1a1a1a" stroke-width="1.2"/>
      <text class="room-label" x="302" y="140" text-anchor="middle" font-size="9" fill="#1e40af">Aula 302</text>

      <!-- Baños norte centro -->
      <rect x="390" y="40" width="155" height="190" fill="#fce7f3" stroke="#1a1a1a" stroke-width="1.5"/>
      <text class="room-label" x="467" y="140" text-anchor="middle" font-size="9" fill="#831843">SS</text>

      <rect x="555" y="40" width="205" height="190" fill="#dbeafe" stroke="#1a1a1a" stroke-width="1.2"/>
      <text class="room-label" x="657" y="140" text-anchor="middle" font-size="9" fill="#1e40af">Aula 303</text>

      <!-- Corredor -->
      <rect x="60" y="230" width="700" height="40" fill="#f1f5f9" stroke="#1a1a1a" stroke-width="1.5"/>
      <text class="room-label" x="410" y="254" text-anchor="middle" font-size="9" fill="#334155">Corredor</text>

      <!-- Bloque sur: laboratorios -->
      <rect x="60" y="270" width="155" height="180" fill="#dbeafe" stroke="#1a1a1a" stroke-width="1.2"/>
      <text class="room-label" x="137" y="363" text-anchor="middle" font-size="9" fill="#1e40af">Lab 301</text>

      <rect x="225" y="270" width="155" height="180" fill="#dbeafe" stroke="#1a1a1a" stroke-width="1.2"/>
      <text class="room-label" x="302" y="363" text-anchor="middle" font-size="9" fill="#1e40af">Lab 302</text>

      <rect x="390" y="270" width="155" height="180" fill="#fce7f3" stroke="#1a1a1a" stroke-width="1.5"/>
      <text class="room-label" x="467" y="363" text-anchor="middle" font-size="9" fill="#831843">SS</text>

      <rect x="555" y="270" width="205" height="180" fill="#dbeafe" stroke="#1a1a1a" stroke-width="1.2"/>
      <text class="room-label" x="657" y="363" text-anchor="middle" font-size="9" fill="#1e40af">Lab 303</text>

      <!-- Circulación vertical -->
      <rect x="760" y="40" width="80" height="410" fill="#f1f5f9" stroke="#1a1a1a" stroke-width="1.5"/>
      <text class="room-label" x="800" y="250" text-anchor="middle" font-size="9" fill="#334155">Esc / Elev</text>

      <text x="880" y="40" font-size="10" fill="#888" text-anchor="end" font-family="sans-serif">N ↑</text>
    </svg>